<mxfile host="app.diagrams.net" modified="2023-07-03T12:23:09.694Z" agent="Mozilla/5.0 (Windows NT 10.0; Win64; x64) AppleWebKit/537.36 (KHTML, like Gecko) Chrome/114.0.0.0 Safari/537.36" etag="-0Gnm745qJ2sNckB2V3_" version="21.1.3" type="device">
  <diagram id="4ZrfaJLC7Dx6SihGyu81" name="Page-1">
    <mxGraphModel dx="1434" dy="699" grid="0" gridSize="10" guides="1" tooltips="1" connect="1" arrows="1" fold="1" page="1" pageScale="1" pageWidth="850" pageHeight="1100" math="0" shadow="0">
      <root>
        <mxCell id="0" />
        <mxCell id="1" parent="0" />
        <mxCell id="9FOUqIcd5IQX0OePepW3-33" value="" style="rounded=0;whiteSpace=wrap;html=1;dashed=1;" parent="1" vertex="1">
          <mxGeometry x="49" y="25" width="654" height="592" as="geometry" />
        </mxCell>
        <mxCell id="9FOUqIcd5IQX0OePepW3-16" style="edgeStyle=orthogonalEdgeStyle;rounded=0;orthogonalLoop=1;jettySize=auto;html=1;entryX=0;entryY=0.5;entryDx=0;entryDy=0;" parent="1" source="9FOUqIcd5IQX0OePepW3-17" target="9FOUqIcd5IQX0OePepW3-25" edge="1">
          <mxGeometry relative="1" as="geometry">
            <mxPoint x="319" y="349" as="targetPoint" />
          </mxGeometry>
        </mxCell>
        <mxCell id="omk4bDyJru3jUt2EAyRz-3" style="edgeStyle=orthogonalEdgeStyle;rounded=0;orthogonalLoop=1;jettySize=auto;html=1;endArrow=none;endFill=0;" edge="1" parent="1" source="9FOUqIcd5IQX0OePepW3-17" target="omk4bDyJru3jUt2EAyRz-1">
          <mxGeometry relative="1" as="geometry" />
        </mxCell>
        <mxCell id="omk4bDyJru3jUt2EAyRz-4" style="edgeStyle=orthogonalEdgeStyle;rounded=0;orthogonalLoop=1;jettySize=auto;html=1;exitX=0.5;exitY=0;exitDx=0;exitDy=0;endArrow=none;endFill=0;" edge="1" parent="1" source="9FOUqIcd5IQX0OePepW3-17" target="omk4bDyJru3jUt2EAyRz-2">
          <mxGeometry relative="1" as="geometry" />
        </mxCell>
        <mxCell id="9FOUqIcd5IQX0OePepW3-17" value="Ubuntu&lt;br&gt;- Tomcat" style="rounded=1;whiteSpace=wrap;html=1;fillColor=#fff2cc;strokeColor=#d6b656;" parent="1" vertex="1">
          <mxGeometry x="140" y="320.38" width="120" height="57.25" as="geometry" />
        </mxCell>
        <mxCell id="9FOUqIcd5IQX0OePepW3-18" style="edgeStyle=orthogonalEdgeStyle;rounded=0;orthogonalLoop=1;jettySize=auto;html=1;entryX=0.5;entryY=1;entryDx=0;entryDy=0;" parent="1" source="9FOUqIcd5IQX0OePepW3-19" target="9FOUqIcd5IQX0OePepW3-17" edge="1">
          <mxGeometry relative="1" as="geometry" />
        </mxCell>
        <mxCell id="9FOUqIcd5IQX0OePepW3-19" value="Metasploit" style="rounded=1;whiteSpace=wrap;html=1;fillColor=#e1d5e7;strokeColor=#9673a6;" parent="1" vertex="1">
          <mxGeometry x="140" y="442" width="120" height="60" as="geometry" />
        </mxCell>
        <mxCell id="9FOUqIcd5IQX0OePepW3-20" style="edgeStyle=orthogonalEdgeStyle;rounded=0;orthogonalLoop=1;jettySize=auto;html=1;entryX=1;entryY=0.5;entryDx=0;entryDy=0;entryPerimeter=0;" parent="1" source="9FOUqIcd5IQX0OePepW3-22" target="9FOUqIcd5IQX0OePepW3-23" edge="1">
          <mxGeometry relative="1" as="geometry" />
        </mxCell>
        <mxCell id="9FOUqIcd5IQX0OePepW3-21" style="edgeStyle=orthogonalEdgeStyle;rounded=0;orthogonalLoop=1;jettySize=auto;html=1;entryX=0.5;entryY=0;entryDx=0;entryDy=0;" parent="1" source="9FOUqIcd5IQX0OePepW3-22" target="9FOUqIcd5IQX0OePepW3-25" edge="1">
          <mxGeometry relative="1" as="geometry">
            <mxPoint x="497" y="349" as="targetPoint" />
          </mxGeometry>
        </mxCell>
        <mxCell id="9FOUqIcd5IQX0OePepW3-22" value="Java App" style="rounded=1;whiteSpace=wrap;html=1;fillColor=#ffe6cc;strokeColor=#d79b00;" parent="1" vertex="1">
          <mxGeometry x="340" y="68" width="120" height="60" as="geometry" />
        </mxCell>
        <mxCell id="9FOUqIcd5IQX0OePepW3-23" value="DB &lt;br&gt;Mongo" style="shape=cylinder3;whiteSpace=wrap;html=1;boundedLbl=1;backgroundOutline=1;size=15;fillColor=#dae8fc;strokeColor=#6c8ebf;" parent="1" vertex="1">
          <mxGeometry x="207" y="58" width="60" height="80" as="geometry" />
        </mxCell>
        <mxCell id="9FOUqIcd5IQX0OePepW3-24" style="edgeStyle=orthogonalEdgeStyle;rounded=0;orthogonalLoop=1;jettySize=auto;html=1;entryX=0;entryY=0.5;entryDx=0;entryDy=0;startArrow=classic;startFill=1;endArrow=none;endFill=0;" parent="1" source="9FOUqIcd5IQX0OePepW3-25" target="9FOUqIcd5IQX0OePepW3-27" edge="1">
          <mxGeometry relative="1" as="geometry" />
        </mxCell>
        <mxCell id="9FOUqIcd5IQX0OePepW3-25" value="Kafka" style="rounded=1;whiteSpace=wrap;html=1;fillColor=#fff2cc;strokeColor=#d6b656;" parent="1" vertex="1">
          <mxGeometry x="340" y="319" width="120" height="60" as="geometry" />
        </mxCell>
        <mxCell id="9FOUqIcd5IQX0OePepW3-26" style="edgeStyle=orthogonalEdgeStyle;rounded=0;orthogonalLoop=1;jettySize=auto;html=1;entryX=0.5;entryY=0;entryDx=0;entryDy=0;" parent="1" source="9FOUqIcd5IQX0OePepW3-27" target="9FOUqIcd5IQX0OePepW3-29" edge="1">
          <mxGeometry relative="1" as="geometry">
            <mxPoint x="597" y="419.5" as="targetPoint" />
          </mxGeometry>
        </mxCell>
        <mxCell id="9FOUqIcd5IQX0OePepW3-27" value="Logstash" style="rounded=1;whiteSpace=wrap;html=1;fillColor=#fff2cc;strokeColor=#d6b656;" parent="1" vertex="1">
          <mxGeometry x="537" y="319" width="120" height="60" as="geometry" />
        </mxCell>
        <mxCell id="9FOUqIcd5IQX0OePepW3-28" style="edgeStyle=orthogonalEdgeStyle;rounded=0;orthogonalLoop=1;jettySize=auto;html=1;entryX=0.5;entryY=0;entryDx=0;entryDy=0;startArrow=classic;startFill=1;endArrow=none;endFill=0;" parent="1" source="9FOUqIcd5IQX0OePepW3-29" target="9FOUqIcd5IQX0OePepW3-30" edge="1">
          <mxGeometry relative="1" as="geometry" />
        </mxCell>
        <mxCell id="9FOUqIcd5IQX0OePepW3-29" value="Opensearch" style="rounded=1;whiteSpace=wrap;html=1;fillColor=#fff2cc;strokeColor=#d6b656;" parent="1" vertex="1">
          <mxGeometry x="537" y="429" width="120" height="60" as="geometry" />
        </mxCell>
        <mxCell id="9FOUqIcd5IQX0OePepW3-30" value="Opensearch Dashboard" style="rounded=1;whiteSpace=wrap;html=1;fillColor=#fff2cc;strokeColor=#d6b656;" parent="1" vertex="1">
          <mxGeometry x="537" y="538" width="120" height="60" as="geometry" />
        </mxCell>
        <mxCell id="9FOUqIcd5IQX0OePepW3-34" value="Docker" style="text;html=1;strokeColor=none;fillColor=none;align=center;verticalAlign=middle;whiteSpace=wrap;rounded=0;" parent="1" vertex="1">
          <mxGeometry x="58" y="33" width="60" height="30" as="geometry" />
        </mxCell>
        <mxCell id="omk4bDyJru3jUt2EAyRz-1" value="Packetbeat" style="rounded=1;whiteSpace=wrap;html=1;fillColor=#fff2cc;strokeColor=#d6b656;" vertex="1" parent="1">
          <mxGeometry x="72" y="209" width="120" height="73" as="geometry" />
        </mxCell>
        <mxCell id="omk4bDyJru3jUt2EAyRz-2" value="Auditbeat" style="rounded=1;whiteSpace=wrap;html=1;fillColor=#fff2cc;strokeColor=#d6b656;" vertex="1" parent="1">
          <mxGeometry x="213" y="209" width="120" height="73" as="geometry" />
        </mxCell>
      </root>
    </mxGraphModel>
  </diagram>
</mxfile>
